<svg width="29" height="28" viewBox="0 0 29 28" fill="none" xmlns="http://www.w3.org/2000/svg">
<path d="M15 18.875L19.875 14M19.875 14L15 9.125M19.875 14H2M10.125 6.27896V6.20033C10.125 4.38015 10.125 3.46938 10.4792 2.77418C10.7908 2.16264 11.2876 1.66581 11.8992 1.35423C12.5943 1 13.5052 1 15.3253 1H22.8003C24.6205 1 25.5294 1 26.2245 1.35423C26.836 1.66581 27.3346 2.16264 27.6461 2.77418C28 3.4687 28 4.37836 28 6.19498V21.8059C28 23.6224 28 24.5308 27.6461 25.2253C27.3346 25.8368 26.836 26.3346 26.2245 26.6461C25.53 27 24.6216 27 22.805 27H15.32C13.5034 27 12.5937 27 11.8992 26.6461C11.2876 26.3346 10.7908 25.8363 10.4792 25.2249C10.125 24.5297 10.125 23.6202 10.125 21.8V21.7188" stroke="white" stroke-width="2" stroke-linecap="round" stroke-linejoin="round"/>
</svg>
