<svg width="220" height="89" viewBox="0 0 220 89" fill="none" xmlns="http://www.w3.org/2000/svg">
<path d="M8.42688 35.4771C8.42688 35.4771 8.13918 18.9285 10.8026 11.496C11.711 8.96101 13.9453 7.05161 16.5 6.20006C22.3992 4.23366 32.8019 3.02291 39 3.2M8.42688 35.4771V60.4771C8.42688 62.1339 9.77002 63.4771 11.4269 63.4771H35.5377C37.1507 63.4771 38.4722 62.2062 38.5079 60.5937C38.6454 54.3964 38.7574 40.0021 37 35.4771C32.4321 23.7147 8.42688 35.4771 8.42688 35.4771Z" stroke="#1B92D1" stroke-width="5" stroke-linecap="round"/>
<path d="M75.7028 38.7H77.7028L73.906 37.8216L75.7028 38.7ZM73.7028 61.7V63.7H77.7028V61.7H73.7028ZM50.7028 38.7C48.8277 38.0043 48.8275 38.0047 48.8273 38.0053C48.8272 38.0056 48.827 38.0062 48.8268 38.0067C48.8264 38.0078 48.8259 38.0091 48.8254 38.0106C48.8242 38.0138 48.8227 38.0179 48.8208 38.023C48.8171 38.0332 48.8119 38.0473 48.8054 38.0653C48.7923 38.1012 48.7739 38.1525 48.7506 38.2184C48.704 38.3501 48.6379 38.5401 48.5569 38.782C48.3949 39.2656 48.1728 39.958 47.9266 40.8076C47.4357 42.5021 46.8427 44.8447 46.4457 47.416C46.0506 49.9753 45.8373 52.8378 46.1505 55.5472C46.4621 58.2434 47.3177 60.9745 49.2309 63.0541L52.1747 60.3459C51.0472 59.1204 50.3825 57.324 50.124 55.0879C49.8671 52.8651 50.0338 50.3908 50.3989 48.0263C50.7621 45.6739 51.3093 43.506 51.7686 41.9208C51.9976 41.1305 52.203 40.4908 52.3498 40.0523C52.4232 39.8331 52.4819 39.6646 52.5214 39.553C52.5411 39.4972 52.5561 39.4556 52.5657 39.4291C52.5705 39.4159 52.574 39.4064 52.576 39.4008C52.577 39.398 52.5777 39.3962 52.578 39.3953C52.5781 39.3952 52.5782 39.3949 52.578 39.3953C52.5779 39.3956 52.5779 39.3957 50.7028 38.7ZM49.2309 63.0541C50.6713 64.6197 52.3946 65.4575 54.2966 65.5139C56.124 65.5681 57.8749 64.894 59.4453 63.9291C62.5552 62.0185 65.5877 58.5734 68.1822 55.0462C70.8124 51.4704 73.14 47.6032 74.8028 44.6473C75.6364 43.1654 76.3078 41.9039 76.7718 41.0108C77.0038 40.5641 77.1843 40.2091 77.3074 39.9643C77.369 39.8419 77.4162 39.747 77.4485 39.682C77.4646 39.6494 77.477 39.6243 77.4855 39.607C77.4898 39.5983 77.4931 39.5916 77.4955 39.5868C77.4966 39.5844 77.4976 39.5825 77.4982 39.5811C77.4986 39.5804 77.4989 39.5798 77.4991 39.5794C77.4994 39.5789 77.4996 39.5784 75.7028 38.7C73.906 37.8216 73.906 37.8217 73.906 37.8216C73.9061 37.8213 73.906 37.8218 73.906 37.8216C73.9057 37.8222 73.9051 37.8236 73.9043 37.8251C73.9027 37.8283 73.9002 37.8334 73.8968 37.8404C73.8898 37.8545 73.8791 37.8763 73.8647 37.9054C73.8357 37.9637 73.792 38.0516 73.734 38.1668C73.6181 38.3972 73.4457 38.7366 73.2222 39.1667C72.7751 40.0272 72.1249 41.249 71.3165 42.6861C69.6953 45.5682 67.457 49.2815 64.96 52.6761C62.4272 56.1193 59.7711 59.0344 57.3514 60.521C56.1571 61.2547 55.1829 61.5385 54.4152 61.5157C53.7219 61.4951 52.9798 61.221 52.1747 60.3459L49.2309 63.0541ZM75.7028 38.7C73.7028 38.7 73.7028 38.7001 73.7028 38.7002C73.7028 38.7 73.7028 38.7003 73.7028 38.7002C73.7028 38.7005 73.7028 38.7011 73.7028 38.7014C73.7028 38.7018 73.7028 38.7021 73.7028 38.7026C73.7028 38.703 73.7028 38.7035 73.7028 38.704C73.7028 38.7045 73.7028 38.7051 73.7028 38.7057C73.7028 38.7064 73.7028 38.7071 73.7028 38.7078C73.7028 38.7086 73.7028 38.7093 73.7028 38.7102C73.7028 38.711 73.7028 38.7119 73.7028 38.7129C73.7028 38.7138 73.7028 38.7148 73.7028 38.7159C73.7028 38.717 73.7028 38.7181 73.7028 38.7192C73.7028 38.7204 73.7028 38.7216 73.7028 38.7229C73.7028 38.7241 73.7028 38.7254 73.7028 38.7268C73.7028 38.7282 73.7028 38.7296 73.7028 38.7311C73.7028 38.7325 73.7028 38.734 73.7028 38.7356C73.7028 38.7372 73.7028 38.7388 73.7028 38.7405C73.7028 38.7422 73.7028 38.7439 73.7028 38.7457C73.7028 38.7474 73.7028 38.7493 73.7028 38.7511C73.7028 38.753 73.7028 38.755 73.7028 38.7569C73.7028 38.7589 73.7028 38.761 73.7028 38.763C73.7028 38.7651 73.7028 38.7672 73.7028 38.7694C73.7028 38.7716 73.7028 38.7738 73.7028 38.7761C73.7028 38.7784 73.7028 38.7808 73.7028 38.7831C73.7028 38.7855 73.7028 38.788 73.7028 38.7904C73.7028 38.7929 73.7028 38.7955 73.7028 38.798C73.7028 38.8006 73.7028 38.8033 73.7028 38.806C73.7028 38.8086 73.7028 38.8114 73.7028 38.8142C73.7028 38.8169 73.7028 38.8198 73.7028 38.8227C73.7028 38.8255 73.7028 38.8285 73.7028 38.8315C73.7028 38.8344 73.7028 38.8375 73.7028 38.8405C73.7028 38.8436 73.7028 38.8468 73.7028 38.8499C73.7028 38.8531 73.7028 38.8563 73.7028 38.8596C73.7028 38.8629 73.7028 38.8662 73.7028 38.8696C73.7028 38.873 73.7028 38.8764 73.7028 38.8799C73.7028 38.8833 73.7028 38.8869 73.7028 38.8904C73.7028 38.894 73.7028 38.8976 73.7028 38.9013C73.7028 38.905 73.7028 38.9087 73.7028 38.9124C73.7028 38.9162 73.7028 38.92 73.7028 38.9239C73.7028 38.9277 73.7028 38.9316 73.7028 38.9356C73.7028 38.9395 73.7028 38.9435 73.7028 38.9476C73.7028 38.9516 73.7028 38.9557 73.7028 38.9599C73.7028 38.964 73.7028 38.9682 73.7028 38.9725C73.7028 38.9767 73.7028 38.981 73.7028 38.9853C73.7028 38.9897 73.7028 38.9941 73.7028 38.9985C73.7028 39.0029 73.7028 39.0074 73.7028 39.0119C73.7028 39.0164 73.7028 39.021 73.7028 39.0256C73.7028 39.0303 73.7028 39.0349 73.7028 39.0396C73.7028 39.0443 73.7028 39.0491 73.7028 39.0539C73.7028 39.0587 73.7028 39.0636 73.7028 39.0685C73.7028 39.0734 73.7028 39.0783 73.7028 39.0833C73.7028 39.0883 73.7028 39.0933 73.7028 39.0984C73.7028 39.1035 73.7028 39.1086 73.7028 39.1138C73.7028 39.119 73.7028 39.1242 73.7028 39.1295C73.7028 39.1348 73.7028 39.1401 73.7028 39.1454C73.7028 39.1508 73.7028 39.1562 73.7028 39.1617C73.7028 39.1671 73.7028 39.1726 73.7028 39.1782C73.7028 39.1837 73.7028 39.1893 73.7028 39.1949C73.7028 39.2006 73.7028 39.2062 73.7028 39.212C73.7028 39.2177 73.7028 39.2235 73.7028 39.2293C73.7028 39.2351 73.7028 39.241 73.7028 39.2469C73.7028 39.2528 73.7028 39.2587 73.7028 39.2647C73.7028 39.2707 73.7028 39.2767 73.7028 39.2828C73.7028 39.2889 73.7028 39.295 73.7028 39.3012C73.7028 39.3074 73.7028 39.3136 73.7028 39.3199C73.7028 39.3261 73.7028 39.3324 73.7028 39.3388C73.7028 39.3452 73.7028 39.3515 73.7028 39.358C73.7028 39.3644 73.7028 39.3709 73.7028 39.3774C73.7028 39.384 73.7028 39.3905 73.7028 39.3972C73.7028 39.4038 73.7028 39.4104 73.7028 39.4171C73.7028 39.4238 73.7028 39.4306 73.7028 39.4374C73.7028 39.4442 73.7028 39.451 73.7028 39.4579C73.7028 39.4648 73.7028 39.4717 73.7028 39.4786C73.7028 39.4856 73.7028 39.4926 73.7028 39.4997C73.7028 39.5067 73.7028 39.5138 73.7028 39.5209C73.7028 39.5281 73.7028 39.5353 73.7028 39.5425C73.7028 39.5497 73.7028 39.557 73.7028 39.5643C73.7028 39.5716 73.7028 39.5789 73.7028 39.5863C73.7028 39.5937 73.7028 39.6012 73.7028 39.6086C73.7028 39.6161 73.7028 39.6236 73.7028 39.6312C73.7028 39.6388 73.7028 39.6464 73.7028 39.654C73.7028 39.6617 73.7028 39.6694 73.7028 39.6771C73.7028 39.6848 73.7028 39.6926 73.7028 39.7004C73.7028 39.7082 73.7028 39.7161 73.7028 39.724C73.7028 39.7319 73.7028 39.7398 73.7028 39.7478C73.7028 39.7558 73.7028 39.7638 73.7028 39.7719C73.7028 39.7799 73.7028 39.788 73.7028 39.7962C73.7028 39.8043 73.7028 39.8125 73.7028 39.8208C73.7028 39.829 73.7028 39.8373 73.7028 39.8456C73.7028 39.8539 73.7028 39.8622 73.7028 39.8706C73.7028 39.879 73.7028 39.8875 73.7028 39.8959C73.7028 39.9044 73.7028 39.9129 73.7028 39.9215C73.7028 39.93 73.7028 39.9386 73.7028 39.9473C73.7028 39.9559 73.7028 39.9646 73.7028 39.9733C73.7028 39.982 73.7028 39.9908 73.7028 39.9996C73.7028 40.0084 73.7028 40.0172 73.7028 40.0261C73.7028 40.035 73.7028 40.0439 73.7028 40.0529C73.7028 40.0618 73.7028 40.0708 73.7028 40.0799C73.7028 40.0889 73.7028 40.098 73.7028 40.1071C73.7028 40.1162 73.7028 40.1254 73.7028 40.1346C73.7028 40.1438 73.7028 40.153 73.7028 40.1623C73.7028 40.1715 73.7028 40.1809 73.7028 40.1902C73.7028 40.1996 73.7028 40.209 73.7028 40.2184C73.7028 40.2278 73.7028 40.2373 73.7028 40.2468C73.7028 40.2563 73.7028 40.2659 73.7028 40.2754C73.7028 40.285 73.7028 40.2947 73.7028 40.3043C73.7028 40.314 73.7028 40.3237 73.7028 40.3334C73.7028 40.3432 73.7028 40.353 73.7028 40.3628C73.7028 40.3726 73.7028 40.3824 73.7028 40.3923C73.7028 40.4022 73.7028 40.4122 73.7028 40.4221C73.7028 40.4321 73.7028 40.4421 73.7028 40.4522C73.7028 40.4622 73.7028 40.4723 73.7028 40.4824C73.7028 40.4925 73.7028 40.5027 73.7028 40.5129C73.7028 40.5231 73.7028 40.5333 73.7028 40.5436C73.7028 40.5539 73.7028 40.5642 73.7028 40.5745C73.7028 40.5849 73.7028 40.5953 73.7028 40.6057C73.7028 40.6161 73.7028 40.6266 73.7028 40.6371C73.7028 40.6476 73.7028 40.6581 73.7028 40.6687C73.7028 40.6792 73.7028 40.6898 73.7028 40.7005C73.7028 40.7111 73.7028 40.7218 73.7028 40.7325C73.7028 40.7432 73.7028 40.754 73.7028 40.7648C73.7028 40.7756 73.7028 40.7864 73.7028 40.7973C73.7028 40.8081 73.7028 40.819 73.7028 40.8299C73.7028 40.8409 73.7028 40.8519 73.7028 40.8629C73.7028 40.8739 73.7028 40.8849 73.7028 40.896C73.7028 40.9071 73.7028 40.9182 73.7028 40.9293C73.7028 40.9405 73.7028 40.9517 73.7028 40.9629C73.7028 40.9741 73.7028 40.9854 73.7028 40.9967C73.7028 41.008 73.7028 41.0193 73.7028 41.0306C73.7028 41.042 73.7028 41.0534 73.7028 41.0648C73.7028 41.0763 73.7028 41.0877 73.7028 41.0993C73.7028 41.1108 73.7028 41.1223 73.7028 41.1339C73.7028 41.1454 73.7028 41.1571 73.7028 41.1687C73.7028 41.1803 73.7028 41.192 73.7028 41.2037C73.7028 41.2154 73.7028 41.2272 73.7028 41.239C73.7028 41.2508 73.7028 41.2626 73.7028 41.2744C73.7028 41.2863 73.7028 41.2982 73.7028 41.3101C73.7028 41.322 73.7028 41.334 73.7028 41.3459C73.7028 41.3579 73.7028 41.3699 73.7028 41.382C73.7028 41.3941 73.7028 41.4061 73.7028 41.4183C73.7028 41.4304 73.7028 41.4425 73.7028 41.4547C73.7028 41.4669 73.7028 41.4792 73.7028 41.4914C73.7028 41.5037 73.7028 41.516 73.7028 41.5283C73.7028 41.5406 73.7028 41.553 73.7028 41.5654C73.7028 41.5777 73.7028 41.5902 73.7028 41.6026C73.7028 41.6151 73.7028 41.6276 73.7028 41.6401C73.7028 41.6526 73.7028 41.6652 73.7028 41.6778C73.7028 41.6904 73.7028 41.703 73.7028 41.7156C73.7028 41.7283 73.7028 41.741 73.7028 41.7537C73.7028 41.7664 73.7028 41.7792 73.7028 41.7919C73.7028 41.8047 73.7028 41.8175 73.7028 41.8304C73.7028 41.8432 73.7028 41.8561 73.7028 41.869C73.7028 41.8819 73.7028 41.8949 73.7028 41.9079C73.7028 41.9208 73.7028 41.9338 73.7028 41.9469C73.7028 41.9599 73.7028 41.973 73.7028 41.9861C73.7028 41.9992 73.7028 42.0123 73.7028 42.0255C73.7028 42.0387 73.7028 42.0519 73.7028 42.0651C73.7028 42.0783 73.7028 42.0916 73.7028 42.1049C73.7028 42.1182 73.7028 42.1315 73.7028 42.1448C73.7028 42.1582 73.7028 42.1716 73.7028 42.185C73.7028 42.1984 73.7028 42.2119 73.7028 42.2253C73.7028 42.2388 73.7028 42.2523 73.7028 42.2659C73.7028 42.2794 73.7028 42.293 73.7028 42.3066C73.7028 42.3202 73.7028 42.3338 73.7028 42.3475C73.7028 42.3611 73.7028 42.3748 73.7028 42.3885C73.7028 42.4023 73.7028 42.416 73.7028 42.4298C73.7028 42.4436 73.7028 42.4574 73.7028 42.4712C73.7028 42.4851 73.7028 42.4989 73.7028 42.5128C73.7028 42.5267 73.7028 42.5407 73.7028 42.5546C73.7028 42.5686 73.7028 42.5826 73.7028 42.5966C73.7028 42.6106 73.7028 42.6247 73.7028 42.6388C73.7028 42.6528 73.7028 42.6669 73.7028 42.6811C73.7028 42.6952 73.7028 42.7094 73.7028 42.7236C73.7028 42.7378 73.7028 42.752 73.7028 42.7662C73.7028 42.7805 73.7028 42.7948 73.7028 42.8091C73.7028 42.8234 73.7028 42.8377 73.7028 42.8521C73.7028 42.8665 73.7028 42.8809 73.7028 42.8953C73.7028 42.9097 73.7028 42.9242 73.7028 42.9387C73.7028 42.9532 73.7028 42.9677 73.7028 42.9822C73.7028 42.9967 73.7028 43.0113 73.7028 43.0259C73.7028 43.0405 73.7028 43.0551 73.7028 43.0698C73.7028 43.0844 73.7028 43.0991 73.7028 43.1138C73.7028 43.1285 73.7028 43.1432 73.7028 43.158C73.7028 43.1728 73.7028 43.1876 73.7028 43.2024C73.7028 43.2172 73.7028 43.232 73.7028 43.2469C73.7028 43.2618 73.7028 43.2767 73.7028 43.2916C73.7028 43.3065 73.7028 43.3215 73.7028 43.3365C73.7028 43.3515 73.7028 43.3665 73.7028 43.3815C73.7028 43.3965 73.7028 43.4116 73.7028 43.4267C73.7028 43.4418 73.7028 43.4569 73.7028 43.472C73.7028 43.4872 73.7028 43.5023 73.7028 43.5175C73.7028 43.5327 73.7028 43.548 73.7028 43.5632C73.7028 43.5785 73.7028 43.5937 73.7028 43.609C73.7028 43.6243 73.7028 43.6397 73.7028 43.655C73.7028 43.6704 73.7028 43.6857 73.7028 43.7011C73.7028 43.7166 73.7028 43.732 73.7028 43.7474C73.7028 43.7629 73.7028 43.7784 73.7028 43.7939C73.7028 43.8094 73.7028 43.8249 73.7028 43.8405C73.7028 43.856 73.7028 43.8716 73.7028 43.8872C73.7028 43.9029 73.7028 43.9185 73.7028 43.9342C73.7028 43.9498 73.7028 43.9655 73.7028 43.9812C73.7028 43.9969 73.7028 44.0127 73.7028 44.0284C73.7028 44.0442 73.7028 44.06 73.7028 44.0758C73.7028 44.0916 73.7028 44.1074 73.7028 44.1233C73.7028 44.1391 73.7028 44.155 73.7028 44.1709C73.7028 44.1868 73.7028 44.2028 73.7028 44.2187C73.7028 44.2347 73.7028 44.2507 73.7028 44.2667C73.7028 44.2827 73.7028 44.2987 73.7028 44.3148C73.7028 44.3308 73.7028 44.3469 73.7028 44.363C73.7028 44.3791 73.7028 44.3953 73.7028 44.4114C73.7028 44.4276 73.7028 44.4437 73.7028 44.4599C73.7028 44.4761 73.7028 44.4923 73.7028 44.5086C73.7028 44.5248 73.7028 44.5411 73.7028 44.5574C73.7028 44.5737 73.7028 44.59 73.7028 44.6064C73.7028 44.6227 73.7028 44.6391 73.7028 44.6554C73.7028 44.6718 73.7028 44.6882 73.7028 44.7047C73.7028 44.7211 73.7028 44.7376 73.7028 44.754C73.7028 44.7705 73.7028 44.787 73.7028 44.8035C73.7028 44.8201 73.7028 44.8366 73.7028 44.8532C73.7028 44.8697 73.7028 44.8863 73.7028 44.9029C73.7028 44.9195 73.7028 44.9362 73.7028 44.9528C73.7028 44.9695 73.7028 44.9862 73.7028 45.0029C73.7028 45.0196 73.7028 45.0363 73.7028 45.0531C73.7028 45.0698 73.7028 45.0866 73.7028 45.1034C73.7028 45.1201 73.7028 45.137 73.7028 45.1538C73.7028 45.1706 73.7028 45.1875 73.7028 45.2044C73.7028 45.2212 73.7028 45.2381 73.7028 45.2551C73.7028 45.272 73.7028 45.2889 73.7028 45.3059C73.7028 45.3228 73.7028 45.3398 73.7028 45.3568C73.7028 45.3738 73.7028 45.3909 73.7028 45.4079C73.7028 45.4249 73.7028 45.442 73.7028 45.4591C73.7028 45.4762 73.7028 45.4933 73.7028 45.5104C73.7028 45.5276 73.7028 45.5447 73.7028 45.5619C73.7028 45.5791 73.7028 45.5962 73.7028 45.6135C73.7028 45.6307 73.7028 45.6479 73.7028 45.6652C73.7028 45.6824 73.7028 45.6997 73.7028 45.717C73.7028 45.7343 73.7028 45.7516 73.7028 45.7689C73.7028 45.7862 73.7028 45.8036 73.7028 45.821C73.7028 45.8383 73.7028 45.8557 73.7028 45.8731C73.7028 45.8906 73.7028 45.908 73.7028 45.9254C73.7028 45.9429 73.7028 45.9604 73.7028 45.9779C73.7028 45.9954 73.7028 46.0129 73.7028 46.0304C73.7028 46.0479 73.7028 46.0655 73.7028 46.083C73.7028 46.1006 73.7028 46.1182 73.7028 46.1358C73.7028 46.1534 73.7028 46.171 73.7028 46.1887C73.7028 46.2063 73.7028 46.224 73.7028 46.2417C73.7028 46.2593 73.7028 46.277 73.7028 46.2948C73.7028 46.3125 73.7028 46.3302 73.7028 46.348C73.7028 46.3657 73.7028 46.3835 73.7028 46.4013C73.7028 46.4191 73.7028 46.4369 73.7028 46.4547C73.7028 46.4725 73.7028 46.4904 73.7028 46.5083C73.7028 46.5261 73.7028 46.544 73.7028 46.5619C73.7028 46.5798 73.7028 46.5977 73.7028 46.6157C73.7028 46.6336 73.7028 46.6515 73.7028 46.6695C73.7028 46.6875 73.7028 46.7055 73.7028 46.7235C73.7028 46.7415 73.7028 46.7595 73.7028 46.7776C73.7028 46.7956 73.7028 46.8137 73.7028 46.8317C73.7028 46.8498 73.7028 46.8679 73.7028 46.886C73.7028 46.9041 73.7028 46.9222 73.7028 46.9404C73.7028 46.9585 73.7028 46.9767 73.7028 46.9949C73.7028 47.013 73.7028 47.0312 73.7028 47.0494C73.7028 47.0677 73.7028 47.0859 73.7028 47.1041C73.7028 47.1224 73.7028 47.1406 73.7028 47.1589C73.7028 47.1772 73.7028 47.1955 73.7028 47.2138C73.7028 47.2321 73.7028 47.2504 73.7028 47.2687C73.7028 47.2871 73.7028 47.3054 73.7028 47.3238C73.7028 47.3422 73.7028 47.3606 73.7028 47.379C73.7028 47.3974 73.7028 47.4158 73.7028 47.4342C73.7028 47.4527 73.7028 47.4711 73.7028 47.4896C73.7028 47.5081 73.7028 47.5265 73.7028 47.545C73.7028 47.5635 73.7028 47.582 73.7028 47.6006C73.7028 47.6191 73.7028 47.6376 73.7028 47.6562C73.7028 47.6748 73.7028 47.6933 73.7028 47.7119C73.7028 47.7305 73.7028 47.7491 73.7028 47.7677C73.7028 47.7863 73.7028 47.805 73.7028 47.8236C73.7028 47.8423 73.7028 47.8609 73.7028 47.8796C73.7028 47.8983 73.7028 47.917 73.7028 47.9357C73.7028 47.9544 73.7028 47.9731 73.7028 47.9918C73.7028 48.0105 73.7028 48.0293 73.7028 48.0481C73.7028 48.0668 73.7028 48.0856 73.7028 48.1044C73.7028 48.1232 73.7028 48.142 73.7028 48.1608C73.7028 48.1796 73.7028 48.1984 73.7028 48.2173C73.7028 48.2361 73.7028 48.255 73.7028 48.2738C73.7028 48.2927 73.7028 48.3116 73.7028 48.3305C73.7028 48.3494 73.7028 48.3683 73.7028 48.3872C73.7028 48.4061 73.7028 48.4251 73.7028 48.444C73.7028 48.463 73.7028 48.4819 73.7028 48.5009C73.7028 48.5199 73.7028 48.5389 73.7028 48.5579C73.7028 48.5769 73.7028 48.5959 73.7028 48.6149C73.7028 48.6339 73.7028 48.653 73.7028 48.672C73.7028 48.6911 73.7028 48.7102 73.7028 48.7292C73.7028 48.7483 73.7028 48.7674 73.7028 48.7865C73.7028 48.8056 73.7028 48.8247 73.7028 48.8438C73.7028 48.863 73.7028 48.8821 73.7028 48.9012C73.7028 48.9204 73.7028 48.9396 73.7028 48.9587C73.7028 48.9779 73.7028 48.9971 73.7028 49.0163C73.7028 49.0355 73.7028 49.0547 73.7028 49.0739C73.7028 49.0931 73.7028 49.1123 73.7028 49.1316C73.7028 49.1508 73.7028 49.1701 73.7028 49.1893C73.7028 49.2086 73.7028 49.2279 73.7028 49.2472C73.7028 49.2665 73.7028 49.2858 73.7028 49.3051C73.7028 49.3244 73.7028 49.3437 73.7028 49.363C73.7028 49.3823 73.7028 49.4017 73.7028 49.421C73.7028 49.4404 73.7028 49.4597 73.7028 49.4791C73.7028 49.4985 73.7028 49.5179 73.7028 49.5373C73.7028 49.5567 73.7028 49.5761 73.7028 49.5955C73.7028 49.6149 73.7028 49.6343 73.7028 49.6537C73.7028 49.6732 73.7028 49.6926 73.7028 49.7121C73.7028 49.7315 73.7028 49.751 73.7028 49.7705C73.7028 49.7899 73.7028 49.8094 73.7028 49.8289C73.7028 49.8484 73.7028 49.8679 73.7028 49.8874C73.7028 49.9069 73.7028 49.9265 73.7028 49.946C73.7028 49.9655 73.7028 49.9851 73.7028 50.0046C73.7028 50.0242 73.7028 50.0437 73.7028 50.0633C73.7028 50.0828 73.7028 50.1024 73.7028 50.122C73.7028 50.1416 73.7028 50.1612 73.7028 50.1808C73.7028 50.2004 73.7028 50.22 73.7028 50.2396C73.7028 50.2592 73.7028 50.2789 73.7028 50.2985C73.7028 50.3181 73.7028 50.3378 73.7028 50.3574C73.7028 50.3771 73.7028 50.3968 73.7028 50.4164C73.7028 50.4361 73.7028 50.4558 73.7028 50.4755C73.7028 50.4951 73.7028 50.5148 73.7028 50.5345C73.7028 50.5542 73.7028 50.574 73.7028 50.5937C73.7028 50.6134 73.7028 50.6331 73.7028 50.6529C73.7028 50.6726 73.7028 50.6923 73.7028 50.7121C73.7028 50.7318 73.7028 50.7516 73.7028 50.7713C73.7028 50.7911 73.7028 50.8109 73.7028 50.8307C73.7028 50.8504 73.7028 50.8702 73.7028 50.89C73.7028 50.9098 73.7028 50.9296 73.7028 50.9494C73.7028 50.9692 73.7028 50.989 73.7028 51.0089C73.7028 51.0287 73.7028 51.0485 73.7028 51.0683C73.7028 51.0882 73.7028 51.108 73.7028 51.1279C73.7028 51.1477 73.7028 51.1676 73.7028 51.1874C73.7028 51.2073 73.7028 51.2271 73.7028 51.247C73.7028 51.2669 73.7028 51.2868 73.7028 51.3066C73.7028 51.3265 73.7028 51.3464 73.7028 51.3663C73.7028 51.3862 73.7028 51.4061 73.7028 51.426C73.7028 51.4459 73.7028 51.4658 73.7028 51.4858C73.7028 51.5057 73.7028 51.5256 73.7028 51.5455C73.7028 51.5655 73.7028 51.5854 73.7028 51.6053C73.7028 51.6253 73.7028 51.6452 73.7028 51.6652C73.7028 51.6851 73.7028 51.7051 73.7028 51.725C73.7028 51.745 73.7028 51.765 73.7028 51.7849C73.7028 51.8049 73.7028 51.8249 73.7028 51.8449C73.7028 51.8649 73.7028 51.8848 73.7028 51.9048C73.7028 51.9248 73.7028 51.9448 73.7028 51.9648C73.7028 51.9848 73.7028 52.0048 73.7028 52.0248C73.7028 52.0448 73.7028 52.0649 73.7028 52.0849C73.7028 52.1049 73.7028 52.1249 73.7028 52.1449C73.7028 52.165 73.7028 52.185 73.7028 52.205C73.7028 52.2251 73.7028 52.2451 73.7028 52.2651C73.7028 52.2852 73.7028 52.3052 73.7028 52.3253C73.7028 52.3453 73.7028 52.3654 73.7028 52.3854C73.7028 52.4055 73.7028 52.4256 73.7028 52.4456C73.7028 52.4657 73.7028 52.4857 73.7028 52.5058C73.7028 52.5259 73.7028 52.546 73.7028 52.566C73.7028 52.5861 73.7028 52.6062 73.7028 52.6263C73.7028 52.6464 73.7028 52.6664 73.7028 52.6865C73.7028 52.7066 73.7028 52.7267 73.7028 52.7468C73.7028 52.7669 73.7028 52.787 73.7028 52.8071C73.7028 52.8272 73.7028 52.8473 73.7028 52.8674C73.7028 52.8875 73.7028 52.9076 73.7028 52.9277C73.7028 52.9478 73.7028 52.9679 73.7028 52.988C73.7028 53.0081 73.7028 53.0283 73.7028 53.0484C73.7028 53.0685 73.7028 53.0886 73.7028 53.1087C73.7028 53.1289 73.7028 53.149 73.7028 53.1691C73.7028 53.1892 73.7028 53.2093 73.7028 53.2295C73.7028 53.2496 73.7028 53.2697 73.7028 53.2899C73.7028 53.31 73.7028 53.3301 73.7028 53.3502C73.7028 53.3704 73.7028 53.3905 73.7028 53.4106C73.7028 53.4308 73.7028 53.4509 73.7028 53.4711C73.7028 53.4912 73.7028 53.5113 73.7028 53.5315C73.7028 53.5516 73.7028 53.5717 73.7028 53.5919C73.7028 53.612 73.7028 53.6322 73.7028 53.6523C73.7028 53.6724 73.7028 53.6926 73.7028 53.7127C73.7028 53.7329 73.7028 53.753 73.7028 53.7731C73.7028 53.7933 73.7028 53.8134 73.7028 53.8336C73.7028 53.8537 73.7028 53.8739 73.7028 53.894C73.7028 53.9141 73.7028 53.9343 73.7028 53.9544C73.7028 53.9746 73.7028 53.9947 73.7028 54.0149C73.7028 54.035 73.7028 54.0551 73.7028 54.0753C73.7028 54.0954 73.7028 54.1156 73.7028 54.1357C73.7028 54.1558 73.7028 54.176 73.7028 54.1961C73.7028 54.2163 73.7028 54.2364 73.7028 54.2565C73.7028 54.2767 73.7028 54.2968 73.7028 54.3169C73.7028 54.3371 73.7028 54.3572 73.7028 54.3773C73.7028 54.3975 73.7028 54.4176 73.7028 54.4377C73.7028 54.4579 73.7028 54.478 73.7028 54.4981C73.7028 54.5183 73.7028 54.5384 73.7028 54.5585C73.7028 54.5786 73.7028 54.5988 73.7028 54.6189C73.7028 54.639 73.7028 54.6591 73.7028 54.6792C73.7028 54.6993 73.7028 54.7195 73.7028 54.7396C73.7028 54.7597 73.7028 54.7798 73.7028 54.7999C73.7028 54.82 73.7028 54.8401 73.7028 54.8602C73.7028 54.8803 73.7028 54.9004 73.7028 54.9205C73.7028 54.9406 73.7028 54.9607 73.7028 54.9808C73.7028 55.0009 73.7028 55.021 73.7028 55.0411C73.7028 55.0612 73.7028 55.0813 73.7028 55.1014C73.7028 55.1215 73.7028 55.1415 73.7028 55.1616C73.7028 55.1817 73.7028 55.2018 73.7028 55.2218C73.7028 55.2419 73.7028 55.262 73.7028 55.282C73.7028 55.3021 73.7028 55.3222 73.7028 55.3422C73.7028 55.3623 73.7028 55.3823 73.7028 55.4024C73.7028 55.4225 73.7028 55.4425 73.7028 55.4625C73.7028 55.4826 73.7028 55.5026 73.7028 55.5227C73.7028 55.5427 73.7028 55.5627 73.7028 55.5828C73.7028 55.6028 73.7028 55.6228 73.7028 55.6428C73.7028 55.6629 73.7028 55.6829 73.7028 55.7029C73.7028 55.7229 73.7028 55.7429 73.7028 55.7629C73.7028 55.7829 73.7028 55.8029 73.7028 55.8229C73.7028 55.8429 73.7028 55.8629 73.7028 55.8829C73.7028 55.9029 73.7028 55.9228 73.7028 55.9428C73.7028 55.9628 73.7028 55.9828 73.7028 56.0027C73.7028 56.0227 73.7028 56.0427 73.7028 56.0626C73.7028 56.0826 73.7028 56.1025 73.7028 56.1225C73.7028 56.1424 73.7028 56.1623 73.7028 56.1823C73.7028 56.2022 73.7028 56.2221 73.7028 56.2421C73.7028 56.262 73.7028 56.2819 73.7028 56.3018C73.7028 56.3217 73.7028 56.3416 73.7028 56.3615C73.7028 56.3814 73.7028 56.4013 73.7028 56.4212C73.7028 56.4411 73.7028 56.461 73.7028 56.4809C73.7028 56.5007 73.7028 56.5206 73.7028 56.5405C73.7028 56.5603 73.7028 56.5802 73.7028 56.6C73.7028 56.6199 73.7028 56.6397 73.7028 56.6596C73.7028 56.6794 73.7028 56.6992 73.7028 56.7191C73.7028 56.7389 73.7028 56.7587 73.7028 56.7785C73.7028 56.7983 73.7028 56.8181 73.7028 56.8379C73.7028 56.8577 73.7028 56.8775 73.7028 56.8973C73.7028 56.9171 73.7028 56.9369 73.7028 56.9566C73.7028 56.9764 73.7028 56.9962 73.7028 57.0159C73.7028 57.0357 73.7028 57.0554 73.7028 57.0752C73.7028 57.0949 73.7028 57.1146 73.7028 57.1344C73.7028 57.1541 73.7028 57.1738 73.7028 57.1935C73.7028 57.2132 73.7028 57.2329 73.7028 57.2526C73.7028 57.2723 73.7028 57.292 73.7028 57.3117C73.7028 57.3313 73.7028 57.351 73.7028 57.3707C73.7028 57.3903 73.7028 57.41 73.7028 57.4296C73.7028 57.4493 73.7028 57.4689 73.7028 57.4885C73.7028 57.5081 73.7028 57.5278 73.7028 57.5474C73.7028 57.567 73.7028 57.5866 73.7028 57.6062C73.7028 57.6258 73.7028 57.6453 73.7028 57.6649C73.7028 57.6845 73.7028 57.7041 73.7028 57.7236C73.7028 57.7432 73.7028 57.7627 73.7028 57.7823C73.7028 57.8018 73.7028 57.8213 73.7028 57.8408C73.7028 57.8604 73.7028 57.8799 73.7028 57.8994C73.7028 57.9189 73.7028 57.9384 73.7028 57.9578C73.7028 57.9773 73.7028 57.9968 73.7028 58.0162C73.7028 58.0357 73.7028 58.0552 73.7028 58.0746C73.7028 58.094 73.7028 58.1135 73.7028 58.1329C73.7028 58.1523 73.7028 58.1717 73.7028 58.1911C73.7028 58.2105 73.7028 58.2299 73.7028 58.2493C73.7028 58.2687 73.7028 58.288 73.7028 58.3074C73.7028 58.3268 73.7028 58.3461 73.7028 58.3654C73.7028 58.3848 73.7028 58.4041 73.7028 58.4234C73.7028 58.4427 73.7028 58.462 73.7028 58.4813C73.7028 58.5006 73.7028 58.5199 73.7028 58.5392C73.7028 58.5585 73.7028 58.5777 73.7028 58.597C73.7028 58.6162 73.7028 58.6355 73.7028 58.6547C73.7028 58.6739 73.7028 58.6931 73.7028 58.7123C73.7028 58.7315 73.7028 58.7507 73.7028 58.7699C73.7028 58.7891 73.7028 58.8082 73.7028 58.8274C73.7028 58.8466 73.7028 58.8657 73.7028 58.8848C73.7028 58.904 73.7028 58.9231 73.7028 58.9422C73.7028 58.9613 73.7028 58.9804 73.7028 58.9995C73.7028 59.0186 73.7028 59.0377 73.7028 59.0567C73.7028 59.0758 73.7028 59.0948 73.7028 59.1139C73.7028 59.1329 73.7028 59.1519 73.7028 59.1709C73.7028 59.1899 73.7028 59.2089 73.7028 59.2279C73.7028 59.2469 73.7028 59.2659 73.7028 59.2848C73.7028 59.3038 73.7028 59.3227 73.7028 59.3417C73.7028 59.3606 73.7028 59.3795 73.7028 59.3984C73.7028 59.4173 73.7028 59.4362 73.7028 59.4551C73.7028 59.474 73.7028 59.4929 73.7028 59.5117C73.7028 59.5306 73.7028 59.5494 73.7028 59.5682C73.7028 59.587 73.7028 59.6059 73.7028 59.6247C73.7028 59.6435 73.7028 59.6622 73.7028 59.681C73.7028 59.6998 73.7028 59.7185 73.7028 59.7373C73.7028 59.756 73.7028 59.7748 73.7028 59.7935C73.7028 59.8122 73.7028 59.8309 73.7028 59.8496C73.7028 59.8682 73.7028 59.8869 73.7028 59.9056C73.7028 59.9242 73.7028 59.9429 73.7028 59.9615C73.7028 59.9801 73.7028 59.9987 73.7028 60.0173C73.7028 60.0359 73.7028 60.0545 73.7028 60.0731C73.7028 60.0917 73.7028 60.1102 73.7028 60.1287C73.7028 60.1473 73.7028 60.1658 73.7028 60.1843C73.7028 60.2028 73.7028 60.2213 73.7028 60.2398C73.7028 60.2583 73.7028 60.2767 73.7028 60.2952C73.7028 60.3136 73.7028 60.3321 73.7028 60.3505C73.7028 60.3689 73.7028 60.3873 73.7028 60.4057C73.7028 60.424 73.7028 60.4424 73.7028 60.4608C73.7028 60.4791 73.7028 60.4975 73.7028 60.5158C73.7028 60.5341 73.7028 60.5524 73.7028 60.5707C73.7028 60.589 73.7028 60.6072 73.7028 60.6255C73.7028 60.6438 73.7028 60.662 73.7028 60.6802C73.7028 60.6984 73.7028 60.7166 73.7028 60.7348C73.7028 60.753 73.7028 60.7712 73.7028 60.7893C73.7028 60.8075 73.7028 60.8256 73.7028 60.8438C73.7028 60.8619 73.7028 60.88 73.7028 60.8981C73.7028 60.9162 73.7028 60.9342 73.7028 60.9523C73.7028 60.9703 73.7028 60.9884 73.7028 61.0064C73.7028 61.0244 73.7028 61.0424 73.7028 61.0604C73.7028 61.0784 73.7028 61.0963 73.7028 61.1143C73.7028 61.1322 73.7028 61.1502 73.7028 61.1681C73.7028 61.186 73.7028 61.2039 73.7028 61.2218C73.7028 61.2397 73.7028 61.2575 73.7028 61.2754C73.7028 61.2932 73.7028 61.311 73.7028 61.3288C73.7028 61.3466 73.7028 61.3644 73.7028 61.3822C73.7028 61.3999 73.7028 61.4177 73.7028 61.4354C73.7028 61.4532 73.7028 61.4709 73.7028 61.4886C73.7028 61.5063 73.7028 61.5239 73.7028 61.5416C73.7028 61.5593 73.7028 61.5769 73.7028 61.5945C73.7028 61.6121 73.7028 61.6297 73.7028 61.6473C73.7028 61.6649 73.7028 61.6825 73.7028 61.7H77.7028C77.7028 61.6825 77.7028 61.6649 77.7028 61.6473C77.7028 61.6297 77.7028 61.6121 77.7028 61.5945C77.7028 61.5769 77.7028 61.5593 77.7028 61.5416C77.7028 61.5239 77.7028 61.5063 77.7028 61.4886C77.7028 61.4709 77.7028 61.4532 77.7028 61.4354C77.7028 61.4177 77.7028 61.3999 77.7028 61.3822C77.7028 61.3644 77.7028 61.3466 77.7028 61.3288C77.7028 61.311 77.7028 61.2932 77.7028 61.2754C77.7028 61.2575 77.7028 61.2397 77.7028 61.2218C77.7028 61.2039 77.7028 61.186 77.7028 61.1681C77.7028 61.1502 77.7028 61.1322 77.7028 61.1143C77.7028 61.0963 77.7028 61.0784 77.7028 61.0604C77.7028 61.0424 77.7028 61.0244 77.7028 61.0064C77.7028 60.9884 77.7028 60.9703 77.7028 60.9523C77.7028 60.9342 77.7028 60.9162 77.7028 60.8981C77.7028 60.88 77.7028 60.8619 77.7028 60.8438C77.7028 60.8256 77.7028 60.8075 77.7028 60.7893C77.7028 60.7712 77.7028 60.753 77.7028 60.7348C77.7028 60.7166 77.7028 60.6984 77.7028 60.6802C77.7028 60.662 77.7028 60.6438 77.7028 60.6255C77.7028 60.6072 77.7028 60.589 77.7028 60.5707C77.7028 60.5524 77.7028 60.5341 77.7028 60.5158C77.7028 60.4975 77.7028 60.4791 77.7028 60.4608C77.7028 60.4424 77.7028 60.424 77.7028 60.4057C77.7028 60.3873 77.7028 60.3689 77.7028 60.3505C77.7028 60.3321 77.7028 60.3136 77.7028 60.2952C77.7028 60.2767 77.7028 60.2583 77.7028 60.2398C77.7028 60.2213 77.7028 60.2028 77.7028 60.1843C77.7028 60.1658 77.7028 60.1473 77.7028 60.1287C77.7028 60.1102 77.7028 60.0917 77.7028 60.0731C77.7028 60.0545 77.7028 60.0359 77.7028 60.0173C77.7028 59.9987 77.7028 59.9801 77.7028 59.9615C77.7028 59.9429 77.7028 59.9242 77.7028 59.9056C77.7028 59.8869 77.7028 59.8682 77.7028 59.8496C77.7028 59.8309 77.7028 59.8122 77.7028 59.7935C77.7028 59.7748 77.7028 59.756 77.7028 59.7373C77.7028 59.7185 77.7028 59.6998 77.7028 59.681C77.7028 59.6622 77.7028 59.6435 77.7028 59.6247C77.7028 59.6059 77.7028 59.587 77.7028 59.5682C77.7028 59.5494 77.7028 59.5306 77.7028 59.5117C77.7028 59.4929 77.7028 59.474 77.7028 59.4551C77.7028 59.4362 77.7028 59.4173 77.7028 59.3984C77.7028 59.3795 77.7028 59.3606 77.7028 59.3417C77.7028 59.3227 77.7028 59.3038 77.7028 59.2848C77.7028 59.2659 77.7028 59.2469 77.7028 59.2279C77.7028 59.2089 77.7028 59.1899 77.7028 59.1709C77.7028 59.1519 77.7028 59.1329 77.7028 59.1139C77.7028 59.0948 77.7028 59.0758 77.7028 59.0567C77.7028 59.0377 77.7028 59.0186 77.7028 58.9995C77.7028 58.9804 77.7028 58.9613 77.7028 58.9422C77.7028 58.9231 77.7028 58.904 77.7028 58.8848C77.7028 58.8657 77.7028 58.8466 77.7028 58.8274C77.7028 58.8082 77.7028 58.7891 77.7028 58.7699C77.7028 58.7507 77.7028 58.7315 77.7028 58.7123C77.7028 58.6931 77.7028 58.6739 77.7028 58.6547C77.7028 58.6355 77.7028 58.6162 77.7028 58.597C77.7028 58.5777 77.7028 58.5585 77.7028 58.5392C77.7028 58.5199 77.7028 58.5006 77.7028 58.4813C77.7028 58.462 77.7028 58.4427 77.7028 58.4234C77.7028 58.4041 77.7028 58.3848 77.7028 58.3654C77.7028 58.3461 77.7028 58.3268 77.7028 58.3074C77.7028 58.288 77.7028 58.2687 77.7028 58.2493C77.7028 58.2299 77.7028 58.2105 77.7028 58.1911C77.7028 58.1717 77.7028 58.1523 77.7028 58.1329C77.7028 58.1135 77.7028 58.094 77.7028 58.0746C77.7028 58.0552 77.7028 58.0357 77.7028 58.0162C77.7028 57.9968 77.7028 57.9773 77.7028 57.9578C77.7028 57.9384 77.7028 57.9189 77.7028 57.8994C77.7028 57.8799 77.7028 57.8604 77.7028 57.8408C77.7028 57.8213 77.7028 57.8018 77.7028 57.7823C77.7028 57.7627 77.7028 57.7432 77.7028 57.7236C77.7028 57.7041 77.7028 57.6845 77.7028 57.6649C77.7028 57.6453 77.7028 57.6258 77.7028 57.6062C77.7028 57.5866 77.7028 57.567 77.7028 57.5474C77.7028 57.5278 77.7028 57.5081 77.7028 57.4885C77.7028 57.4689 77.7028 57.4493 77.7028 57.4296C77.7028 57.41 77.7028 57.3903 77.7028 57.3707C77.7028 57.351 77.7028 57.3313 77.7028 57.3117C77.7028 57.292 77.7028 57.2723 77.7028 57.2526C77.7028 57.2329 77.7028 57.2132 77.7028 57.1935C77.7028 57.1738 77.7028 57.1541 77.7028 57.1344C77.7028 57.1146 77.7028 57.0949 77.7028 57.0752C77.7028 57.0554 77.7028 57.0357 77.7028 57.0159C77.7028 56.9962 77.7028 56.9764 77.7028 56.9566C77.7028 56.9369 77.7028 56.9171 77.7028 56.8973C77.7028 56.8775 77.7028 56.8577 77.7028 56.8379C77.7028 56.8181 77.7028 56.7983 77.7028 56.7785C77.7028 56.7587 77.7028 56.7389 77.7028 56.7191C77.7028 56.6992 77.7028 56.6794 77.7028 56.6596C77.7028 56.6397 77.7028 56.6199 77.7028 56.6C77.7028 56.5802 77.7028 56.5603 77.7028 56.5405C77.7028 56.5206 77.7028 56.5007 77.7028 56.4809C77.7028 56.461 77.7028 56.4411 77.7028 56.4212C77.7028 56.4013 77.7028 56.3814 77.7028 56.3615C77.7028 56.3416 77.7028 56.3217 77.7028 56.3018C77.7028 56.2819 77.7028 56.262 77.7028 56.2421C77.7028 56.2221 77.7028 56.2022 77.7028 56.1823C77.7028 56.1623 77.7028 56.1424 77.7028 56.1225C77.7028 56.1025 77.7028 56.0826 77.7028 56.0626C77.7028 56.0427 77.7028 56.0227 77.7028 56.0027C77.7028 55.9828 77.7028 55.9628 77.7028 55.9428C77.7028 55.9228 77.7028 55.9029 77.7028 55.8829C77.7028 55.8629 77.7028 55.8429 77.7028 55.8229C77.7028 55.8029 77.7028 55.7829 77.7028 55.7629C77.7028 55.7429 77.7028 55.7229 77.7028 55.7029C77.7028 55.6829 77.7028 55.6629 77.7028 55.6428C77.7028 55.6228 77.7028 55.6028 77.7028 55.5828C77.7028 55.5627 77.7028 55.5427 77.7028 55.5227C77.7028 55.5026 77.7028 55.4826 77.7028 55.4625C77.7028 55.4425 77.7028 55.4225 77.7028 55.4024C77.7028 55.3823 77.7028 55.3623 77.7028 55.3422C77.7028 55.3222 77.7028 55.3021 77.7028 55.282C77.7028 55.262 77.7028 55.2419 77.7028 55.2218C77.7028 55.2018 77.7028 55.1817 77.7028 55.1616C77.7028 55.1415 77.7028 55.1215 77.7028 55.1014C77.7028 55.0813 77.7028 55.0612 77.7028 55.0411C77.7028 55.021 77.7028 55.0009 77.7028 54.9808C77.7028 54.9607 77.7028 54.9406 77.7028 54.9205C77.7028 54.9004 77.7028 54.8803 77.7028 54.8602C77.7028 54.8401 77.7028 54.82 77.7028 54.7999C77.7028 54.7798 77.7028 54.7597 77.7028 54.7396C77.7028 54.7195 77.7028 54.6993 77.7028 54.6792C77.7028 54.6591 77.7028 54.639 77.7028 54.6189C77.7028 54.5988 77.7028 54.5786 77.7028 54.5585C77.7028 54.5384 77.7028 54.5183 77.7028 54.4981C77.7028 54.478 77.7028 54.4579 77.7028 54.4377C77.7028 54.4176 77.7028 54.3975 77.7028 54.3773C77.7028 54.3572 77.7028 54.3371 77.7028 54.3169C77.7028 54.2968 77.7028 54.2767 77.7028 54.2565C77.7028 54.2364 77.7028 54.2163 77.7028 54.1961C77.7028 54.176 77.7028 54.1558 77.7028 54.1357C77.7028 54.1156 77.7028 54.0954 77.7028 54.0753C77.7028 54.0551 77.7028 54.035 77.7028 54.0149C77.7028 53.9947 77.7028 53.9746 77.7028 53.9544C77.7028 53.9343 77.7028 53.9141 77.7028 53.894C77.7028 53.8739 77.7028 53.8537 77.7028 53.8336C77.7028 53.8134 77.7028 53.7933 77.7028 53.7731C77.7028 53.753 77.7028 53.7329 77.7028 53.7127C77.7028 53.6926 77.7028 53.6724 77.7028 53.6523C77.7028 53.6322 77.7028 53.612 77.7028 53.5919C77.7028 53.5717 77.7028 53.5516 77.7028 53.5315C77.7028 53.5113 77.7028 53.4912 77.7028 53.4711C77.7028 53.4509 77.7028 53.4308 77.7028 53.4106C77.7028 53.3905 77.7028 53.3704 77.7028 53.3502C77.7028 53.3301 77.7028 53.31 77.7028 53.2899C77.7028 53.2697 77.7028 53.2496 77.7028 53.2295C77.7028 53.2093 77.7028 53.1892 77.7028 53.1691C77.7028 53.149 77.7028 53.1289 77.7028 53.1087C77.7028 53.0886 77.7028 53.0685 77.7028 53.0484C77.7028 53.0283 77.7028 53.0081 77.7028 52.988C77.7028 52.9679 77.7028 52.9478 77.7028 52.9277C77.7028 52.9076 77.7028 52.8875 77.7028 52.8674C77.7028 52.8473 77.7028 52.8272 77.7028 52.8071C77.7028 52.787 77.7028 52.7669 77.7028 52.7468C77.7028 52.7267 77.7028 52.7066 77.7028 52.6865C77.7028 52.6664 77.7028 52.6464 77.7028 52.6263C77.7028 52.6062 77.7028 52.5861 77.7028 52.566C77.7028 52.546 77.7028 52.5259 77.7028 52.5058C77.7028 52.4857 77.7028 52.4657 77.7028 52.4456C77.7028 52.4256 77.7028 52.4055 77.7028 52.3854C77.7028 52.3654 77.7028 52.3453 77.7028 52.3253C77.7028 52.3052 77.7028 52.2852 77.7028 52.2651C77.7028 52.2451 77.7028 52.2251 77.7028 52.205C77.7028 52.185 77.7028 52.165 77.7028 52.1449C77.7028 52.1249 77.7028 52.1049 77.7028 52.0849C77.7028 52.0649 77.7028 52.0448 77.7028 52.0248C77.7028 52.0048 77.7028 51.9848 77.7028 51.9648C77.7028 51.9448 77.7028 51.9248 77.7028 51.9048C77.7028 51.8848 77.7028 51.8649 77.7028 51.8449C77.7028 51.8249 77.7028 51.8049 77.7028 51.7849C77.7028 51.765 77.7028 51.745 77.7028 51.725C77.7028 51.7051 77.7028 51.6851 77.7028 51.6652C77.7028 51.6452 77.7028 51.6253 77.7028 51.6053C77.7028 51.5854 77.7028 51.5655 77.7028 51.5455C77.7028 51.5256 77.7028 51.5057 77.7028 51.4858C77.7028 51.4658 77.7028 51.4459 77.7028 51.426C77.7028 51.4061 77.7028 51.3862 77.7028 51.3663C77.7028 51.3464 77.7028 51.3265 77.7028 51.3066C77.7028 51.2868 77.7028 51.2669 77.7028 51.247C77.7028 51.2271 77.7028 51.2073 77.7028 51.1874C77.7028 51.1676 77.7028 51.1477 77.7028 51.1279C77.7028 51.108 77.7028 51.0882 77.7028 51.0683C77.7028 51.0485 77.7028 51.0287 77.7028 51.0089C77.7028 50.989 77.7028 50.9692 77.7028 50.9494C77.7028 50.9296 77.7028 50.9098 77.7028 50.89C77.7028 50.8702 77.7028 50.8504 77.7028 50.8307C77.7028 50.8109 77.7028 50.7911 77.7028 50.7713C77.7028 50.7516 77.7028 50.7318 77.7028 50.7121C77.7028 50.6923 77.7028 50.6726 77.7028 50.6529C77.7028 50.6331 77.7028 50.6134 77.7028 50.5937C77.7028 50.574 77.7028 50.5542 77.7028 50.5345C77.7028 50.5148 77.7028 50.4951 77.7028 50.4755C77.7028 50.4558 77.7028 50.4361 77.7028 50.4164C77.7028 50.3968 77.7028 50.3771 77.7028 50.3574C77.7028 50.3378 77.7028 50.3181 77.7028 50.2985C77.7028 50.2789 77.7028 50.2592 77.7028 50.2396C77.7028 50.22 77.7028 50.2004 77.7028 50.1808C77.7028 50.1612 77.7028 50.1416 77.7028 50.122C77.7028 50.1024 77.7028 50.0828 77.7028 50.0633C77.7028 50.0437 77.7028 50.0242 77.7028 50.0046C77.7028 49.9851 77.7028 49.9655 77.7028 49.946C77.7028 49.9265 77.7028 49.9069 77.7028 49.8874C77.7028 49.8679 77.7028 49.8484 77.7028 49.8289C77.7028 49.8094 77.7028 49.7899 77.7028 49.7705C77.7028 49.751 77.7028 49.7315 77.7028 49.7121C77.7028 49.6926 77.7028 49.6732 77.7028 49.6537C77.7028 49.6343 77.7028 49.6149 77.7028 49.5955C77.7028 49.5761 77.7028 49.5567 77.7028 49.5373C77.7028 49.5179 77.7028 49.4985 77.7028 49.4791C77.7028 49.4597 77.7028 49.4404 77.7028 49.421C77.7028 49.4017 77.7028 49.3823 77.7028 49.363C77.7028 49.3437 77.7028 49.3244 77.7028 49.3051C77.7028 49.2858 77.7028 49.2665 77.7028 49.2472C77.7028 49.2279 77.7028 49.2086 77.7028 49.1893C77.7028 49.1701 77.7028 49.1508 77.7028 49.1316C77.7028 49.1123 77.7028 49.0931 77.7028 49.0739C77.7028 49.0547 77.7028 49.0355 77.7028 49.0163C77.7028 48.9971 77.7028 48.9779 77.7028 48.9587C77.7028 48.9396 77.7028 48.9204 77.7028 48.9012C77.7028 48.8821 77.7028 48.863 77.7028 48.8438C77.7028 48.8247 77.7028 48.8056 77.7028 48.7865C77.7028 48.7674 77.7028 48.7483 77.7028 48.7292C77.7028 48.7102 77.7028 48.6911 77.7028 48.672C77.7028 48.653 77.7028 48.6339 77.7028 48.6149C77.7028 48.5959 77.7028 48.5769 77.7028 48.5579C77.7028 48.5389 77.7028 48.5199 77.7028 48.5009C77.7028 48.4819 77.7028 48.463 77.7028 48.444C77.7028 48.4251 77.7028 48.4061 77.7028 48.3872C77.7028 48.3683 77.7028 48.3494 77.7028 48.3305C77.7028 48.3116 77.7028 48.2927 77.7028 48.2738C77.7028 48.255 77.7028 48.2361 77.7028 48.2173C77.7028 48.1984 77.7028 48.1796 77.7028 48.1608C77.7028 48.142 77.7028 48.1232 77.7028 48.1044C77.7028 48.0856 77.7028 48.0668 77.7028 48.0481C77.7028 48.0293 77.7028 48.0105 77.7028 47.9918C77.7028 47.9731 77.7028 47.9544 77.7028 47.9357C77.7028 47.917 77.7028 47.8983 77.7028 47.8796C77.7028 47.8609 77.7028 47.8423 77.7028 47.8236C77.7028 47.805 77.7028 47.7863 77.7028 47.7677C77.7028 47.7491 77.7028 47.7305 77.7028 47.7119C77.7028 47.6933 77.7028 47.6748 77.7028 47.6562C77.7028 47.6376 77.7028 47.6191 77.7028 47.6006C77.7028 47.582 77.7028 47.5635 77.7028 47.545C77.7028 47.5265 77.7028 47.5081 77.7028 47.4896C77.7028 47.4711 77.7028 47.4527 77.7028 47.4342C77.7028 47.4158 77.7028 47.3974 77.7028 47.379C77.7028 47.3606 77.7028 47.3422 77.7028 47.3238C77.7028 47.3054 77.7028 47.2871 77.7028 47.2687C77.7028 47.2504 77.7028 47.2321 77.7028 47.2138C77.7028 47.1955 77.7028 47.1772 77.7028 47.1589C77.7028 47.1406 77.7028 47.1224 77.7028 47.1041C77.7028 47.0859 77.7028 47.0677 77.7028 47.0494C77.7028 47.0312 77.7028 47.013 77.7028 46.9949C77.7028 46.9767 77.7028 46.9585 77.7028 46.9404C77.7028 46.9222 77.7028 46.9041 77.7028 46.886C77.7028 46.8679 77.7028 46.8498 77.7028 46.8317C77.7028 46.8137 77.7028 46.7956 77.7028 46.7776C77.7028 46.7595 77.7028 46.7415 77.7028 46.7235C77.7028 46.7055 77.7028 46.6875 77.7028 46.6695C77.7028 46.6515 77.7028 46.6336 77.7028 46.6157C77.7028 46.5977 77.7028 46.5798 77.7028 46.5619C77.7028 46.544 77.7028 46.5261 77.7028 46.5083C77.7028 46.4904 77.7028 46.4725 77.7028 46.4547C77.7028 46.4369 77.7028 46.4191 77.7028 46.4013C77.7028 46.3835 77.7028 46.3657 77.7028 46.348C77.7028 46.3302 77.7028 46.3125 77.7028 46.2948C77.7028 46.277 77.7028 46.2593 77.7028 46.2417C77.7028 46.224 77.7028 46.2063 77.7028 46.1887C77.7028 46.171 77.7028 46.1534 77.7028 46.1358C77.7028 46.1182 77.7028 46.1006 77.7028 46.083C77.7028 46.0655 77.7028 46.0479 77.7028 46.0304C77.7028 46.0129 77.7028 45.9954 77.7028 45.9779C77.7028 45.9604 77.7028 45.9429 77.7028 45.9254C77.7028 45.908 77.7028 45.8906 77.7028 45.8731C77.7028 45.8557 77.7028 45.8383 77.7028 45.821C77.7028 45.8036 77.7028 45.7862 77.7028 45.7689C77.7028 45.7516 77.7028 45.7343 77.7028 45.717C77.7028 45.6997 77.7028 45.6824 77.7028 45.6652C77.7028 45.6479 77.7028 45.6307 77.7028 45.6135C77.7028 45.5962 77.7028 45.5791 77.7028 45.5619C77.7028 45.5447 77.7028 45.5276 77.7028 45.5104C77.7028 45.4933 77.7028 45.4762 77.7028 45.4591C77.7028 45.442 77.7028 45.4249 77.7028 45.4079C77.7028 45.3909 77.7028 45.3738 77.7028 45.3568C77.7028 45.3398 77.7028 45.3228 77.7028 45.3059C77.7028 45.2889 77.7028 45.272 77.7028 45.2551C77.7028 45.2381 77.7028 45.2212 77.7028 45.2044C77.7028 45.1875 77.7028 45.1706 77.7028 45.1538C77.7028 45.137 77.7028 45.1201 77.7028 45.1034C77.7028 45.0866 77.7028 45.0698 77.7028 45.0531C77.7028 45.0363 77.7028 45.0196 77.7028 45.0029C77.7028 44.9862 77.7028 44.9695 77.7028 44.9528C77.7028 44.9362 77.7028 44.9195 77.7028 44.9029C77.7028 44.8863 77.7028 44.8697 77.7028 44.8532C77.7028 44.8366 77.7028 44.8201 77.7028 44.8035C77.7028 44.787 77.7028 44.7705 77.7028 44.754C77.7028 44.7376 77.7028 44.7211 77.7028 44.7047C77.7028 44.6882 77.7028 44.6718 77.7028 44.6554C77.7028 44.6391 77.7028 44.6227 77.7028 44.6064C77.7028 44.59 77.7028 44.5737 77.7028 44.5574C77.7028 44.5411 77.7028 44.5248 77.7028 44.5086C77.7028 44.4923 77.7028 44.4761 77.7028 44.4599C77.7028 44.4437 77.7028 44.4276 77.7028 44.4114C77.7028 44.3953 77.7028 44.3791 77.7028 44.363C77.7028 44.3469 77.7028 44.3308 77.7028 44.3148C77.7028 44.2987 77.7028 44.2827 77.7028 44.2667C77.7028 44.2507 77.7028 44.2347 77.7028 44.2187C77.7028 44.2028 77.7028 44.1868 77.7028 44.1709C77.7028 44.155 77.7028 44.1391 77.7028 44.1233C77.7028 44.1074 77.7028 44.0916 77.7028 44.0758C77.7028 44.06 77.7028 44.0442 77.7028 44.0284C77.7028 44.0127 77.7028 43.9969 77.7028 43.9812C77.7028 43.9655 77.7028 43.9498 77.7028 43.9342C77.7028 43.9185 77.7028 43.9029 77.7028 43.8872C77.7028 43.8716 77.7028 43.856 77.7028 43.8405C77.7028 43.8249 77.7028 43.8094 77.7028 43.7939C77.7028 43.7784 77.7028 43.7629 77.7028 43.7474C77.7028 43.732 77.7028 43.7166 77.7028 43.7011C77.7028 43.6857 77.7028 43.6704 77.7028 43.655C77.7028 43.6397 77.7028 43.6243 77.7028 43.609C77.7028 43.5937 77.7028 43.5785 77.7028 43.5632C77.7028 43.548 77.7028 43.5327 77.7028 43.5175C77.7028 43.5023 77.7028 43.4872 77.7028 43.472C77.7028 43.4569 77.7028 43.4418 77.7028 43.4267C77.7028 43.4116 77.7028 43.3965 77.7028 43.3815C77.7028 43.3665 77.7028 43.3515 77.7028 43.3365C77.7028 43.3215 77.7028 43.3065 77.7028 43.2916C77.7028 43.2767 77.7028 43.2618 77.7028 43.2469C77.7028 43.232 77.7028 43.2172 77.7028 43.2024C77.7028 43.1876 77.7028 43.1728 77.7028 43.158C77.7028 43.1432 77.7028 43.1285 77.7028 43.1138C77.7028 43.0991 77.7028 43.0844 77.7028 43.0698C77.7028 43.0551 77.7028 43.0405 77.7028 43.0259C77.7028 43.0113 77.7028 42.9967 77.7028 42.9822C77.7028 42.9677 77.7028 42.9532 77.7028 42.9387C77.7028 42.9242 77.7028 42.9097 77.7028 42.8953C77.7028 42.8809 77.7028 42.8665 77.7028 42.8521C77.7028 42.8377 77.7028 42.8234 77.7028 42.8091C77.7028 42.7948 77.7028 42.7805 77.7028 42.7662C77.7028 42.752 77.7028 42.7378 77.7028 42.7236C77.7028 42.7094 77.7028 42.6952 77.7028 42.6811C77.7028 42.6669 77.7028 42.6528 77.7028 42.6388C77.7028 42.6247 77.7028 42.6106 77.7028 42.5966C77.7028 42.5826 77.7028 42.5686 77.7028 42.5546C77.7028 42.5407 77.7028 42.5267 77.7028 42.5128C77.7028 42.4989 77.7028 42.4851 77.7028 42.4712C77.7028 42.4574 77.7028 42.4436 77.7028 42.4298C77.7028 42.416 77.7028 42.4023 77.7028 42.3885C77.7028 42.3748 77.7028 42.3611 77.7028 42.3475C77.7028 42.3338 77.7028 42.3202 77.7028 42.3066C77.7028 42.293 77.7028 42.2794 77.7028 42.2659C77.7028 42.2523 77.7028 42.2388 77.7028 42.2253C77.7028 42.2119 77.7028 42.1984 77.7028 42.185C77.7028 42.1716 77.7028 42.1582 77.7028 42.1448C77.7028 42.1315 77.7028 42.1182 77.7028 42.1049C77.7028 42.0916 77.7028 42.0783 77.7028 42.0651C77.7028 42.0519 77.7028 42.0387 77.7028 42.0255C77.7028 42.0123 77.7028 41.9992 77.7028 41.9861C77.7028 41.973 77.7028 41.9599 77.7028 41.9469C77.7028 41.9338 77.7028 41.9208 77.7028 41.9079C77.7028 41.8949 77.7028 41.8819 77.7028 41.869C77.7028 41.8561 77.7028 41.8432 77.7028 41.8304C77.7028 41.8175 77.7028 41.8047 77.7028 41.7919C77.7028 41.7792 77.7028 41.7664 77.7028 41.7537C77.7028 41.741 77.7028 41.7283 77.7028 41.7156C77.7028 41.703 77.7028 41.6904 77.7028 41.6778C77.7028 41.6652 77.7028 41.6526 77.7028 41.6401C77.7028 41.6276 77.7028 41.6151 77.7028 41.6026C77.7028 41.5902 77.7028 41.5777 77.7028 41.5654C77.7028 41.553 77.7028 41.5406 77.7028 41.5283C77.7028 41.516 77.7028 41.5037 77.7028 41.4914C77.7028 41.4792 77.7028 41.4669 77.7028 41.4547C77.7028 41.4425 77.7028 41.4304 77.7028 41.4183C77.7028 41.4061 77.7028 41.3941 77.7028 41.382C77.7028 41.3699 77.7028 41.3579 77.7028 41.3459C77.7028 41.334 77.7028 41.322 77.7028 41.3101C77.7028 41.2982 77.7028 41.2863 77.7028 41.2744C77.7028 41.2626 77.7028 41.2508 77.7028 41.239C77.7028 41.2272 77.7028 41.2154 77.7028 41.2037C77.7028 41.192 77.7028 41.1803 77.7028 41.1687C77.7028 41.1571 77.7028 41.1454 77.7028 41.1339C77.7028 41.1223 77.7028 41.1108 77.7028 41.0993C77.7028 41.0877 77.7028 41.0763 77.7028 41.0648C77.7028 41.0534 77.7028 41.042 77.7028 41.0306C77.7028 41.0193 77.7028 41.008 77.7028 40.9967C77.7028 40.9854 77.7028 40.9741 77.7028 40.9629C77.7028 40.9517 77.7028 40.9405 77.7028 40.9293C77.7028 40.9182 77.7028 40.9071 77.7028 40.896C77.7028 40.8849 77.7028 40.8739 77.7028 40.8629C77.7028 40.8519 77.7028 40.8409 77.7028 40.8299C77.7028 40.819 77.7028 40.8081 77.7028 40.7973C77.7028 40.7864 77.7028 40.7756 77.7028 40.7648C77.7028 40.754 77.7028 40.7432 77.7028 40.7325C77.7028 40.7218 77.7028 40.7111 77.7028 40.7005C77.7028 40.6898 77.7028 40.6792 77.7028 40.6687C77.7028 40.6581 77.7028 40.6476 77.7028 40.6371C77.7028 40.6266 77.7028 40.6161 77.7028 40.6057C77.7028 40.5953 77.7028 40.5849 77.7028 40.5745C77.7028 40.5642 77.7028 40.5539 77.7028 40.5436C77.7028 40.5333 77.7028 40.5231 77.7028 40.5129C77.7028 40.5027 77.7028 40.4925 77.7028 40.4824C77.7028 40.4723 77.7028 40.4622 77.7028 40.4522C77.7028 40.4421 77.7028 40.4321 77.7028 40.4221C77.7028 40.4122 77.7028 40.4022 77.7028 40.3923C77.7028 40.3824 77.7028 40.3726 77.7028 40.3628C77.7028 40.353 77.7028 40.3432 77.7028 40.3334C77.7028 40.3237 77.7028 40.314 77.7028 40.3043C77.7028 40.2947 77.7028 40.285 77.7028 40.2754C77.7028 40.2659 77.7028 40.2563 77.7028 40.2468C77.7028 40.2373 77.7028 40.2278 77.7028 40.2184C77.7028 40.209 77.7028 40.1996 77.7028 40.1902C77.7028 40.1809 77.7028 40.1715 77.7028 40.1623C77.7028 40.153 77.7028 40.1438 77.7028 40.1346C77.7028 40.1254 77.7028 40.1162 77.7028 40.1071C77.7028 40.098 77.7028 40.0889 77.7028 40.0799C77.7028 40.0708 77.7028 40.0618 77.7028 40.0529C77.7028 40.0439 77.7028 40.035 77.7028 40.0261C77.7028 40.0172 77.7028 40.0084 77.7028 39.9996C77.7028 39.9908 77.7028 39.982 77.7028 39.9733C77.7028 39.9646 77.7028 39.9559 77.7028 39.9473C77.7028 39.9386 77.7028 39.93 77.7028 39.9215C77.7028 39.9129 77.7028 39.9044 77.7028 39.8959C77.7028 39.8875 77.7028 39.879 77.7028 39.8706C77.7028 39.8622 77.7028 39.8539 77.7028 39.8456C77.7028 39.8373 77.7028 39.829 77.7028 39.8208C77.7028 39.8125 77.7028 39.8043 77.7028 39.7962C77.7028 39.788 77.7028 39.7799 77.7028 39.7719C77.7028 39.7638 77.7028 39.7558 77.7028 39.7478C77.7028 39.7398 77.7028 39.7319 77.7028 39.724C77.7028 39.7161 77.7028 39.7082 77.7028 39.7004C77.7028 39.6926 77.7028 39.6848 77.7028 39.6771C77.7028 39.6694 77.7028 39.6617 77.7028 39.654C77.7028 39.6464 77.7028 39.6388 77.7028 39.6312C77.7028 39.6236 77.7028 39.6161 77.7028 39.6086C77.7028 39.6012 77.7028 39.5937 77.7028 39.5863C77.7028 39.5789 77.7028 39.5716 77.7028 39.5643C77.7028 39.557 77.7028 39.5497 77.7028 39.5425C77.7028 39.5353 77.7028 39.5281 77.7028 39.5209C77.7028 39.5138 77.7028 39.5067 77.7028 39.4997C77.7028 39.4926 77.7028 39.4856 77.7028 39.4786C77.7028 39.4717 77.7028 39.4648 77.7028 39.4579C77.7028 39.451 77.7028 39.4442 77.7028 39.4374C77.7028 39.4306 77.7028 39.4238 77.7028 39.4171C77.7028 39.4104 77.7028 39.4038 77.7028 39.3972C77.7028 39.3905 77.7028 39.384 77.7028 39.3774C77.7028 39.3709 77.7028 39.3644 77.7028 39.358C77.7028 39.3515 77.7028 39.3452 77.7028 39.3388C77.7028 39.3324 77.7028 39.3261 77.7028 39.3199C77.7028 39.3136 77.7028 39.3074 77.7028 39.3012C77.7028 39.295 77.7028 39.2889 77.7028 39.2828C77.7028 39.2767 77.7028 39.2707 77.7028 39.2647C77.7028 39.2587 77.7028 39.2528 77.7028 39.2469C77.7028 39.241 77.7028 39.2351 77.7028 39.2293C77.7028 39.2235 77.7028 39.2177 77.7028 39.212C77.7028 39.2062 77.7028 39.2006 77.7028 39.1949C77.7028 39.1893 77.7028 39.1837 77.7028 39.1782C77.7028 39.1726 77.7028 39.1671 77.7028 39.1617C77.7028 39.1562 77.7028 39.1508 77.7028 39.1454C77.7028 39.1401 77.7028 39.1348 77.7028 39.1295C77.7028 39.1242 77.7028 39.119 77.7028 39.1138C77.7028 39.1086 77.7028 39.1035 77.7028 39.0984C77.7028 39.0933 77.7028 39.0883 77.7028 39.0833C77.7028 39.0783 77.7028 39.0734 77.7028 39.0685C77.7028 39.0636 77.7028 39.0587 77.7028 39.0539C77.7028 39.0491 77.7028 39.0443 77.7028 39.0396C77.7028 39.0349 77.7028 39.0303 77.7028 39.0256C77.7028 39.021 77.7028 39.0164 77.7028 39.0119C77.7028 39.0074 77.7028 39.0029 77.7028 38.9985C77.7028 38.9941 77.7028 38.9897 77.7028 38.9853C77.7028 38.981 77.7028 38.9767 77.7028 38.9725C77.7028 38.9682 77.7028 38.964 77.7028 38.9599C77.7028 38.9557 77.7028 38.9516 77.7028 38.9476C77.7028 38.9435 77.7028 38.9395 77.7028 38.9356C77.7028 38.9316 77.7028 38.9277 77.7028 38.9239C77.7028 38.92 77.7028 38.9162 77.7028 38.9124C77.7028 38.9087 77.7028 38.905 77.7028 38.9013C77.7028 38.8976 77.7028 38.894 77.7028 38.8904C77.7028 38.8869 77.7028 38.8833 77.7028 38.8799C77.7028 38.8764 77.7028 38.873 77.7028 38.8696C77.7028 38.8662 77.7028 38.8629 77.7028 38.8596C77.7028 38.8563 77.7028 38.8531 77.7028 38.8499C77.7028 38.8468 77.7028 38.8436 77.7028 38.8405C77.7028 38.8375 77.7028 38.8344 77.7028 38.8315C77.7028 38.8285 77.7028 38.8255 77.7028 38.8227C77.7028 38.8198 77.7028 38.8169 77.7028 38.8142C77.7028 38.8114 77.7028 38.8086 77.7028 38.806C77.7028 38.8033 77.7028 38.8006 77.7028 38.798C77.7028 38.7955 77.7028 38.7929 77.7028 38.7904C77.7028 38.788 77.7028 38.7855 77.7028 38.7831C77.7028 38.7808 77.7028 38.7784 77.7028 38.7761C77.7028 38.7738 77.7028 38.7716 77.7028 38.7694C77.7028 38.7672 77.7028 38.7651 77.7028 38.763C77.7028 38.761 77.7028 38.7589 77.7028 38.7569C77.7028 38.755 77.7028 38.753 77.7028 38.7511C77.7028 38.7493 77.7028 38.7474 77.7028 38.7457C77.7028 38.7439 77.7028 38.7422 77.7028 38.7405C77.7028 38.7388 77.7028 38.7372 77.7028 38.7356C77.7028 38.734 77.7028 38.7325 77.7028 38.7311C77.7028 38.7296 77.7028 38.7282 77.7028 38.7268C77.7028 38.7254 77.7028 38.7241 77.7028 38.7229C77.7028 38.7216 77.7028 38.7204 77.7028 38.7192C77.7028 38.7181 77.7028 38.717 77.7028 38.7159C77.7028 38.7148 77.7028 38.7138 77.7028 38.7129C77.7028 38.7119 77.7028 38.711 77.7028 38.7102C77.7028 38.7093 77.7028 38.7086 77.7028 38.7078C77.7028 38.7071 77.7028 38.7064 77.7028 38.7057C77.7028 38.7051 77.7028 38.7045 77.7028 38.704C77.7028 38.7035 77.7028 38.703 77.7028 38.7026C77.7028 38.7021 77.7028 38.7018 77.7028 38.7014C77.7028 38.7017 77.7028 38.7011 77.7028 38.7014C77.7028 38.7012 77.7028 38.7001 77.7028 38.7C77.7028 38.6999 77.7028 38.7 75.7028 38.7Z" fill="#141414"/>
<path d="M85.7028 64.8933V48.0395C85.7028 44.333 87.9722 40.9831 91.5657 40.0749C97.5381 38.5655 106.501 37.3258 110.703 41.8933C114.392 45.9038 113.605 53.5142 112.415 58.88C111.6 62.5538 108.206 64.8933 104.443 64.8933H85.7028ZM85.7028 64.8933V87.8933" stroke="#141414" stroke-width="4"/>
<path d="M123.406 61.7L127.32 54.4976C128.777 51.8176 128.777 48.5824 127.32 45.9024L123.406 38.7M148.406 38.7L144.491 45.9024C143.035 48.5824 143.035 51.8176 144.491 54.4976L148.406 61.7M129.656 38.7L135.906 50.2L142.156 61.7" stroke="#141414" stroke-width="4" stroke-linecap="square"/>
<path d="M161.108 38.7C161.108 38.7 155.027 55.0898 161.108 61.7C167.719 68.885 176.345 61.7 186.108 61.7M186.108 61.7C186.108 52.7179 186.108 38.7 186.108 38.7M186.108 61.7C186.108 65.9141 186.108 71.2368 186.108 75.7002C186.108 80.6707 182.079 84.7 177.108 84.7H161.108" stroke="#141414" stroke-width="4"/>
<path d="M219.109 41.1993C219.109 41.1993 204.8 35.5759 199.657 41.1993C194.926 46.3729 194.926 54.0271 199.657 59.2007C204.8 64.8241 211.512 59.2007 219.109 59.2007" stroke="#141414" stroke-width="4"/>
</svg>
